[
    {
        "sample_fmt": "fltp", 
        "bits_per_sample": 0, 
        "codec_type": "audio", 
        "channels": 1, 
        "bit_rate": "85215", 
        "codec_name": "aac", 
        "duration": "4.318912", 
        "nb_frames": "186", 
        "codec_time_base": "1/44100", 
        "index": 0, 
        "start_pts": 0, 
        "disposition": {
            "comment": 0, 
            "forced": 0, 
            "lyrics": 0, 
            "default": 1, 
            "visual_impaired": 0, 
            "dub": 0, 
            "karaoke": 0, 
            "clean_effects": 0, 
            "attached_pic": 0, 
            "original": 0, 
            "hearing_impaired": 0
        }, 
        "profile": "LC", 
        "tags": {
            "handler_name": "Core Media Data Handler", 
            "creation_time": "2016-10-24 03:33:42", 
            "language": "und"
        }, 
        "r_frame_rate": "0/0", 
        "start_time": "0.000000", 
        "time_base": "1/44100", 
        "codec_tag_string": "mp4a", 
        "duration_ts": 190464, 
        "codec_long_name": "AAC (Advanced Audio Coding)", 
        "codec_tag": "0x6134706d", 
        "avg_frame_rate": "0/0", 
        "channel_layout": "mono", 
        "sample_rate": "44100"
    }, 
    {
        "pix_fmt": "yuv420p", 
        "sample_aspect_ratio": "0:1", 
        "side_data_list": [
            {
                "rotation": -90, 
                "displaymatrix": "\n00000000:            0       65536           0\n00000001:       -65536           0           0\n00000002:     47185920           0  1073741824\n", 
                "side_data_type": "Display Matrix", 
                "side_data_size": 36
            }
        ], 
        "refs": 1, 
        "codec_type": "video", 
        "coded_height": 720, 
        "bit_rate": "2382878", 
        "codec_name": "h264", 
        "duration": "4.268333", 
        "is_avc": "true", 
        "nb_frames": "128", 
        "codec_time_base": "2561/153600", 
        "index": 1, 
        "start_pts": 0, 
        "tags": {
            "handler_name": "Core Media Data Handler", 
            "rotate": "90", 
            "creation_time": "2016-10-24 03:33:42", 
            "language": "und", 
            "encoder": "H.264"
        }, 
        "disposition": {
            "comment": 0, 
            "forced": 0, 
            "lyrics": 0, 
            "default": 1, 
            "visual_impaired": 0, 
            "dub": 0, 
            "karaoke": 0, 
            "clean_effects": 0, 
            "attached_pic": 0, 
            "original": 0, 
            "hearing_impaired": 0
        }, 
        "width": 1280, 
        "coded_width": 1280, 
        "profile": "Main", 
        "color_space": "bt709", 
        "chroma_location": "left", 
        "color_range": "tv", 
        "color_primaries": "bt709", 
        "color_transfer": "bt709", 
        "r_frame_rate": "30000/1001", 
        "start_time": "0.000000", 
        "time_base": "1/600", 
        "codec_tag_string": "avc1", 
        "duration_ts": 2561, 
        "codec_long_name": "H.264 / AVC / MPEG-4 AVC / MPEG-4 part 10", 
        "display_aspect_ratio": "0:1", 
        "codec_tag": "0x31637661", 
        "height": 720, 
        "avg_frame_rate": "76800/2561", 
        "level": 31, 
        "bits_per_raw_sample": "8", 
        "has_b_frames": 0, 
        "nal_length_size": "4"
    }, 
    {
        "index": 2, 
        "avg_frame_rate": "0/0", 
        "start_pts": 0, 
        "r_frame_rate": "0/0", 
        "start_time": "0.000000", 
        "tags": {
            "handler_name": "Core Media Data Handler", 
            "creation_time": "2016-10-24 03:33:42", 
            "language": "und"
        }, 
        "time_base": "1/600", 
        "codec_tag_string": "mebx", 
        "codec_type": "data", 
        "disposition": {
            "comment": 0, 
            "forced": 0, 
            "lyrics": 0, 
            "default": 1, 
            "visual_impaired": 0, 
            "dub": 0, 
            "karaoke": 0, 
            "clean_effects": 0, 
            "attached_pic": 0, 
            "original": 0, 
            "hearing_impaired": 0
        }, 
        "bit_rate": "14", 
        "duration_ts": 2561, 
        "codec_tag": "0x7862656d", 
        "duration": "4.268333", 
        "nb_frames": "1"
    }, 
    {
        "index": 3, 
        "avg_frame_rate": "0/0", 
        "start_pts": 0, 
        "r_frame_rate": "0/0", 
        "start_time": "0.000000", 
        "tags": {
            "handler_name": "Core Media Data Handler", 
            "creation_time": "2016-10-24 03:33:42", 
            "language": "und"
        }, 
        "time_base": "1/600", 
        "codec_tag_string": "mebx", 
        "codec_type": "data", 
        "disposition": {
            "comment": 0, 
            "forced": 0, 
            "lyrics": 0, 
            "default": 1, 
            "visual_impaired": 0, 
            "dub": 0, 
            "karaoke": 0, 
            "clean_effects": 0, 
            "attached_pic": 0, 
            "original": 0, 
            "hearing_impaired": 0
        }, 
        "bit_rate": "18", 
        "duration_ts": 2561, 
        "codec_tag": "0x7862656d", 
        "duration": "4.268333", 
        "nb_frames": "1"
    }
]